<mxfile host="app.diagrams.net" agent="Mozilla/5.0 (Windows NT 10.0; Win64; x64) AppleWebKit/537.36 (KHTML, like Gecko) Chrome/131.0.0.0 Safari/537.36" version="25.0.1">
  <diagram id="C5RBs43oDa-KdzZeNtuy" name="Page-1">
    <mxGraphModel dx="1912" dy="984" grid="1" gridSize="10" guides="1" tooltips="1" connect="1" arrows="1" fold="1" page="1" pageScale="1" pageWidth="827" pageHeight="1169" math="0" shadow="0">
      <root>
        <mxCell id="WIyWlLk6GJQsqaUBKTNV-0" />
        <mxCell id="WIyWlLk6GJQsqaUBKTNV-1" parent="WIyWlLk6GJQsqaUBKTNV-0" />
        <mxCell id="nwKheyDAumKvB1q-MSI3-2" style="edgeStyle=orthogonalEdgeStyle;rounded=0;orthogonalLoop=1;jettySize=auto;html=1;entryX=0.5;entryY=0;entryDx=0;entryDy=0;" edge="1" parent="WIyWlLk6GJQsqaUBKTNV-1" source="nwKheyDAumKvB1q-MSI3-0" target="nwKheyDAumKvB1q-MSI3-1">
          <mxGeometry relative="1" as="geometry" />
        </mxCell>
        <mxCell id="nwKheyDAumKvB1q-MSI3-0" value="Start" style="strokeWidth=2;html=1;shape=mxgraph.flowchart.terminator;whiteSpace=wrap;" vertex="1" parent="WIyWlLk6GJQsqaUBKTNV-1">
          <mxGeometry x="300" y="90" width="80" height="40" as="geometry" />
        </mxCell>
        <mxCell id="nwKheyDAumKvB1q-MSI3-4" style="edgeStyle=orthogonalEdgeStyle;rounded=0;orthogonalLoop=1;jettySize=auto;html=1;exitX=0.5;exitY=1;exitDx=0;exitDy=0;entryX=0.5;entryY=0;entryDx=0;entryDy=0;" edge="1" parent="WIyWlLk6GJQsqaUBKTNV-1" source="nwKheyDAumKvB1q-MSI3-1" target="nwKheyDAumKvB1q-MSI3-3">
          <mxGeometry relative="1" as="geometry" />
        </mxCell>
        <mxCell id="nwKheyDAumKvB1q-MSI3-1" value="Besuchsmarkierungen zurücksetzen" style="rounded=1;whiteSpace=wrap;html=1;absoluteArcSize=1;arcSize=14;strokeWidth=2;" vertex="1" parent="WIyWlLk6GJQsqaUBKTNV-1">
          <mxGeometry x="230" y="170" width="220" height="40" as="geometry" />
        </mxCell>
        <mxCell id="nwKheyDAumKvB1q-MSI3-3" value="Startknoten in Queue einfügen &amp;amp; als besucht markieren" style="rounded=1;whiteSpace=wrap;html=1;absoluteArcSize=1;arcSize=14;strokeWidth=2;" vertex="1" parent="WIyWlLk6GJQsqaUBKTNV-1">
          <mxGeometry x="180" y="250" width="320" height="40" as="geometry" />
        </mxCell>
        <mxCell id="nwKheyDAumKvB1q-MSI3-10" style="edgeStyle=orthogonalEdgeStyle;rounded=0;orthogonalLoop=1;jettySize=auto;html=1;exitX=0;exitY=0.5;exitDx=0;exitDy=0;exitPerimeter=0;" edge="1" parent="WIyWlLk6GJQsqaUBKTNV-1" source="nwKheyDAumKvB1q-MSI3-5" target="nwKheyDAumKvB1q-MSI3-8">
          <mxGeometry relative="1" as="geometry" />
        </mxCell>
        <mxCell id="nwKheyDAumKvB1q-MSI3-28" style="edgeStyle=orthogonalEdgeStyle;rounded=0;orthogonalLoop=1;jettySize=auto;html=1;exitX=1;exitY=0.5;exitDx=0;exitDy=0;exitPerimeter=0;entryX=1;entryY=0.5;entryDx=0;entryDy=0;" edge="1" parent="WIyWlLk6GJQsqaUBKTNV-1" source="nwKheyDAumKvB1q-MSI3-5" target="nwKheyDAumKvB1q-MSI3-20">
          <mxGeometry relative="1" as="geometry">
            <Array as="points">
              <mxPoint x="580" y="380" />
              <mxPoint x="580" y="930" />
              <mxPoint x="310" y="930" />
              <mxPoint x="310" y="850" />
            </Array>
          </mxGeometry>
        </mxCell>
        <mxCell id="nwKheyDAumKvB1q-MSI3-5" value="Queue leer?" style="strokeWidth=2;html=1;shape=mxgraph.flowchart.decision;whiteSpace=wrap;" vertex="1" parent="WIyWlLk6GJQsqaUBKTNV-1">
          <mxGeometry x="290" y="330" width="100" height="100" as="geometry" />
        </mxCell>
        <mxCell id="nwKheyDAumKvB1q-MSI3-6" style="edgeStyle=orthogonalEdgeStyle;rounded=0;orthogonalLoop=1;jettySize=auto;html=1;exitX=0.5;exitY=1;exitDx=0;exitDy=0;entryX=0.5;entryY=0;entryDx=0;entryDy=0;entryPerimeter=0;" edge="1" parent="WIyWlLk6GJQsqaUBKTNV-1" source="nwKheyDAumKvB1q-MSI3-3" target="nwKheyDAumKvB1q-MSI3-5">
          <mxGeometry relative="1" as="geometry" />
        </mxCell>
        <mxCell id="nwKheyDAumKvB1q-MSI3-8" value="Obersten Knoten aus Queue nehem" style="rounded=1;whiteSpace=wrap;html=1;absoluteArcSize=1;arcSize=14;strokeWidth=2;" vertex="1" parent="WIyWlLk6GJQsqaUBKTNV-1">
          <mxGeometry x="110" y="470" width="190" height="50" as="geometry" />
        </mxCell>
        <mxCell id="nwKheyDAumKvB1q-MSI3-9" style="edgeStyle=orthogonalEdgeStyle;rounded=0;orthogonalLoop=1;jettySize=auto;html=1;exitX=0.5;exitY=1;exitDx=0;exitDy=0;" edge="1" parent="WIyWlLk6GJQsqaUBKTNV-1" source="nwKheyDAumKvB1q-MSI3-8" target="nwKheyDAumKvB1q-MSI3-8">
          <mxGeometry relative="1" as="geometry" />
        </mxCell>
        <mxCell id="nwKheyDAumKvB1q-MSI3-12" style="edgeStyle=orthogonalEdgeStyle;rounded=0;orthogonalLoop=1;jettySize=auto;html=1;exitX=0.5;exitY=1;exitDx=0;exitDy=0;entryX=0.5;entryY=0;entryDx=0;entryDy=0;" edge="1" parent="WIyWlLk6GJQsqaUBKTNV-1" source="nwKheyDAumKvB1q-MSI3-8" target="nwKheyDAumKvB1q-MSI3-16">
          <mxGeometry relative="1" as="geometry">
            <mxPoint x="205" y="570" as="targetPoint" />
          </mxGeometry>
        </mxCell>
        <mxCell id="nwKheyDAumKvB1q-MSI3-14" value="Nein" style="text;html=1;align=center;verticalAlign=middle;whiteSpace=wrap;rounded=0;" vertex="1" parent="WIyWlLk6GJQsqaUBKTNV-1">
          <mxGeometry x="150" y="390" width="60" height="30" as="geometry" />
        </mxCell>
        <mxCell id="nwKheyDAumKvB1q-MSI3-16" value="Knoten&amp;nbsp; zum Ergebnis hinzufügen" style="rounded=1;whiteSpace=wrap;html=1;absoluteArcSize=1;arcSize=14;strokeWidth=2;" vertex="1" parent="WIyWlLk6GJQsqaUBKTNV-1">
          <mxGeometry x="85" y="580" width="240" height="40" as="geometry" />
        </mxCell>
        <mxCell id="nwKheyDAumKvB1q-MSI3-21" style="edgeStyle=orthogonalEdgeStyle;rounded=0;orthogonalLoop=1;jettySize=auto;html=1;exitX=0.5;exitY=1;exitDx=0;exitDy=0;exitPerimeter=0;entryX=0.5;entryY=0;entryDx=0;entryDy=0;" edge="1" parent="WIyWlLk6GJQsqaUBKTNV-1" source="nwKheyDAumKvB1q-MSI3-18" target="nwKheyDAumKvB1q-MSI3-20">
          <mxGeometry relative="1" as="geometry" />
        </mxCell>
        <mxCell id="nwKheyDAumKvB1q-MSI3-25" style="edgeStyle=orthogonalEdgeStyle;rounded=0;orthogonalLoop=1;jettySize=auto;html=1;exitX=1;exitY=0.5;exitDx=0;exitDy=0;exitPerimeter=0;entryX=0.5;entryY=0;entryDx=0;entryDy=0;" edge="1" parent="WIyWlLk6GJQsqaUBKTNV-1" source="nwKheyDAumKvB1q-MSI3-18" target="nwKheyDAumKvB1q-MSI3-24">
          <mxGeometry relative="1" as="geometry" />
        </mxCell>
        <mxCell id="nwKheyDAumKvB1q-MSI3-18" value="Ist es der Zielknoten?" style="strokeWidth=2;html=1;shape=mxgraph.flowchart.decision;whiteSpace=wrap;" vertex="1" parent="WIyWlLk6GJQsqaUBKTNV-1">
          <mxGeometry x="147.5" y="680" width="115" height="100" as="geometry" />
        </mxCell>
        <mxCell id="nwKheyDAumKvB1q-MSI3-19" style="edgeStyle=orthogonalEdgeStyle;rounded=0;orthogonalLoop=1;jettySize=auto;html=1;exitX=0.5;exitY=1;exitDx=0;exitDy=0;entryX=0.5;entryY=0;entryDx=0;entryDy=0;entryPerimeter=0;" edge="1" parent="WIyWlLk6GJQsqaUBKTNV-1" source="nwKheyDAumKvB1q-MSI3-16" target="nwKheyDAumKvB1q-MSI3-18">
          <mxGeometry relative="1" as="geometry" />
        </mxCell>
        <mxCell id="nwKheyDAumKvB1q-MSI3-20" value="Ergebnis zurückgeben" style="rounded=1;whiteSpace=wrap;html=1;absoluteArcSize=1;arcSize=14;strokeWidth=2;" vertex="1" parent="WIyWlLk6GJQsqaUBKTNV-1">
          <mxGeometry x="127.5" y="830" width="155" height="40" as="geometry" />
        </mxCell>
        <mxCell id="nwKheyDAumKvB1q-MSI3-23" value="Ja" style="text;html=1;align=center;verticalAlign=middle;whiteSpace=wrap;rounded=0;" vertex="1" parent="WIyWlLk6GJQsqaUBKTNV-1">
          <mxGeometry x="190" y="790" width="60" height="30" as="geometry" />
        </mxCell>
        <mxCell id="nwKheyDAumKvB1q-MSI3-27" style="edgeStyle=orthogonalEdgeStyle;rounded=0;orthogonalLoop=1;jettySize=auto;html=1;exitX=0.75;exitY=0;exitDx=0;exitDy=0;" edge="1" parent="WIyWlLk6GJQsqaUBKTNV-1" source="nwKheyDAumKvB1q-MSI3-24" target="nwKheyDAumKvB1q-MSI3-5">
          <mxGeometry relative="1" as="geometry" />
        </mxCell>
        <mxCell id="nwKheyDAumKvB1q-MSI3-24" value="Alle unbesuchten Nachbarn in Queue einfügen &amp;amp; als besucht markieren" style="rounded=1;whiteSpace=wrap;html=1;absoluteArcSize=1;arcSize=14;strokeWidth=2;" vertex="1" parent="WIyWlLk6GJQsqaUBKTNV-1">
          <mxGeometry x="340" y="830" width="220" height="70" as="geometry" />
        </mxCell>
        <mxCell id="nwKheyDAumKvB1q-MSI3-26" value="Nein" style="text;html=1;align=center;verticalAlign=middle;whiteSpace=wrap;rounded=0;" vertex="1" parent="WIyWlLk6GJQsqaUBKTNV-1">
          <mxGeometry x="280" y="730" width="60" height="30" as="geometry" />
        </mxCell>
        <mxCell id="nwKheyDAumKvB1q-MSI3-29" value="Ja" style="text;html=1;align=center;verticalAlign=middle;whiteSpace=wrap;rounded=0;" vertex="1" parent="WIyWlLk6GJQsqaUBKTNV-1">
          <mxGeometry x="390" y="390" width="60" height="30" as="geometry" />
        </mxCell>
        <mxCell id="nwKheyDAumKvB1q-MSI3-30" value="Ende" style="strokeWidth=2;html=1;shape=mxgraph.flowchart.terminator;whiteSpace=wrap;" vertex="1" parent="WIyWlLk6GJQsqaUBKTNV-1">
          <mxGeometry x="160" y="940" width="90" height="50" as="geometry" />
        </mxCell>
        <mxCell id="nwKheyDAumKvB1q-MSI3-31" style="edgeStyle=orthogonalEdgeStyle;rounded=0;orthogonalLoop=1;jettySize=auto;html=1;exitX=0.5;exitY=1;exitDx=0;exitDy=0;entryX=0.5;entryY=0;entryDx=0;entryDy=0;entryPerimeter=0;" edge="1" parent="WIyWlLk6GJQsqaUBKTNV-1" source="nwKheyDAumKvB1q-MSI3-20" target="nwKheyDAumKvB1q-MSI3-30">
          <mxGeometry relative="1" as="geometry" />
        </mxCell>
      </root>
    </mxGraphModel>
  </diagram>
</mxfile>
